<svg height="20mm" viewBox="0 0 70.866142 70.866141" width="20mm" xmlns="http://www.w3.org/2000/svg"><g transform="translate(0 -981.49606)"><path d="m25.456841 1006.9539a14.106498 39.968415 44.997309 0 0 -18.2843084 38.2394 14.106498 39.968415 44.997309 0 0 1.1609454.8651l.4531066-.4532a13.895043 39.369296 44.997309 0 1 -1.1909044-.8351 13.895043 39.369296 44.997309 0 1 18.0109608-37.6665 13.895043 39.369296 44.997309 0 1 37.662985-18.0126 13.895043 39.369296 44.997309 0 1 .86137 1.16462l.398808-.39884a14.106498 39.968415 44.997309 0 0 -.837029-1.18895 14.106498 39.968415 44.997309 0 0 -38.235934 18.28607z" fill="#cc5b00"/><path d="m23.451379 1004.9485a16.944078 48.008226 44.997309 0 0 -21.9632596 45.9298 16.944078 48.008226 44.997309 0 0 2.9865945 1.6756l5.2256963-5.226a14.408368 40.823714 44.997309 0 1 -3.1326404-1.5297 14.408368 40.823714 44.997309 0 1 18.6756082-39.0578 14.408368 40.823714 44.997309 0 1 39.054162-18.67739 14.408368 40.823714 44.997309 0 1 1.533664 3.12874l5.197606-5.1981a16.944078 48.008226 44.997309 0 0 -1.649748-3.01265 16.944078 48.008226 44.997309 0 0 -45.927683 21.9675z" fill="#bb717b"/><path d="m25.868793 1007.3657a13.524731 38.320076 44.997309 0 0 -17.5316617 36.6631l6.1244137-6.125a10.468489 29.66072 44.997309 0 1 13.56813-28.3773 10.468489 29.66072 44.997309 0 1 28.375966-13.5708l6.122541-6.12318a13.524731 38.320076 44.997309 0 0 -36.659389 17.53318z" fill="#c90"/><g stroke="#000" stroke-width="2" transform="matrix(1.1216376 0 0 1.1141937 -5.318829 -113.76553)"><path d="m18.615966 1037.8413h35.433071v-46.06304h-24.80315l-10.629921 10.62994z" fill="#fff" fill-rule="evenodd"/><g fill="none"><path d="m18.615966 1002.4082h10.629921v-10.62994"/><path d="m32.789194 998.86486h14.173229"/><path d="m25.70258 1005.9515h21.259843"/><path d="m25.70258 1013.0382h21.259843"/><path d="m25.70258 1020.1248h21.259843"/><path d="m25.70258 1027.2114h21.259843"/></g></g><path d="m8.3371313 1044.0288a13.524731 38.320076 44.997309 0 0 36.6593817-17.5372 13.524731 38.320076 44.997309 0 0 17.531669-36.65908l-6.122541 6.12318a10.468489 29.66072 44.997309 0 1 -13.570006 28.3753 10.468489 29.66072 44.997309 0 1 -28.37409 13.5728z" fill="#c90"/><path d="m.09867672 1048.6615a16.944078 48.008226 44.997309 0 0 1.38944268 2.2168 16.944078 48.008226 44.997309 0 0 45.9276826-21.9675 16.944078 48.008226 44.997309 0 0 21.96326-45.9298 16.944078 48.008226 44.997309 0 0 -2.231995-1.37426l-5.117097 5.11758a14.408368 40.823714 44.997309 0 1 2.26757 1.33869 14.408368 40.823714 44.997309 0 1 -18.675606 39.05399 14.408368 40.823714 44.997309 0 1 -39.0541642 18.6812 14.408368 40.823714 44.997309 0 1 -1.3220405-2.2843l-5.14705258 5.1476z" fill="#bb717b"/><path d="m5.8261468 1042.8135a14.106498 39.968415 44.997309 0 0 1.3463858 2.3798 14.106498 39.968415 44.997309 0 0 38.2359384-18.2896 14.106498 39.968415 44.997309 0 0 18.284304-38.23587 14.106498 39.968415 44.997309 0 0 -2.3743-1.3518l-.439998.44004a13.895043 39.369296 44.997309 0 1 2.391149 1.33493 13.895043 39.369296 44.997309 0 1 -18.010958 37.6628 13.895043 39.369296 44.997309 0 1 -37.6629878 18.0163 13.895043 39.369296 44.997309 0 1 -1.3463831-2.3797z" fill="#cc5b00"/></g></svg>